<svg width="50px" height="50px" viewBox="0 0 50 50" version="1.1" xmlns="http://www.w3.org/2000/svg" xmlns:xlink="http://www.w3.org/1999/xlink">
    <!-- Generator: sketchtool 59.1 (101010) - https://sketch.com -->
    <desc>Created with sketchtool.</desc>
    <defs>
        <filter x="-1.3%" y="-3.9%" width="102.5%" height="107.8%" filterUnits="objectBoundingBox" id="filter-1">
            <feOffset dx="0" dy="2" in="SourceAlpha" result="shadowOffsetOuter1"></feOffset>
            <feGaussianBlur stdDeviation="2" in="shadowOffsetOuter1" result="shadowBlurOuter1"></feGaussianBlur>
            <feColorMatrix values="0 0 0 0 0   0 0 0 0 0   0 0 0 0 0  0 0 0 0.1 0" type="matrix" in="shadowBlurOuter1" result="shadowMatrixOuter1"></feColorMatrix>
            <feMerge>
                <feMergeNode in="shadowMatrixOuter1"></feMergeNode>
                <feMergeNode in="SourceGraphic"></feMergeNode>
            </feMerge>
        </filter>
    </defs>
    <g id="ðŸ›¬-Landing-page" stroke="none" stroke-width="1" fill="none" fill-rule="evenodd">
        <g id="Landing-page-Light-concept-with-backimage" transform="translate(-588.000000, -454.000000)" fill="#000000">
            <g id="Group" filter="url(#filter-1)" transform="translate(240.000000, 424.000000)">
                <g id="Landing/Steps-Copy" transform="translate(322.000000, 0.000000)">
                    <g id="Landing/Icons/BOX1" transform="translate(27.000000, 30.000000)">
                        <path d="M7.5,10.9062501 C7.90625203,10.9062501 8.25781102,11.0546861 8.5546875,11.3515626 C8.85156398,11.648439 9,11.999998 9,12.4062501 L9,15.4062501 C9,15.8125021 8.85156398,16.1640611 8.5546875,16.4609376 C8.25781102,16.757814 7.90625203,16.9062501 7.5,16.9062501 L4.5,16.9062501 C4.09374797,16.9062501 3.74218898,16.757814 3.4453125,16.4609376 C3.14843602,16.1640611 3,15.8125021 3,15.4062501 L3,12.4062501 C3,11.999998 3.14843602,11.648439 3.4453125,11.3515626 C3.74218898,11.0546861 4.09374797,10.9062501 4.5,10.9062501 L7.5,10.9062501 Z M43.59375,12.4062501 C44.000002,12.4062501 44.351561,12.5546861 44.6484375,12.8515626 C44.945314,13.148439 45.09375,13.499998 45.09375,13.9062501 C45.09375,14.3125021 44.945314,14.6640611 44.6484375,14.9609376 C44.351561,15.257814 44.000002,15.4062501 43.59375,15.4062501 L14.25,15.4062501 C13.843748,15.4062501 13.492189,15.257814 13.1953125,14.9609376 C12.898436,14.6640611 12.75,14.3125021 12.75,13.9062501 C12.75,13.499998 12.898436,13.148439 13.1953125,12.8515626 C13.492189,12.5546861 13.843748,12.4062501 14.25,12.4062501 L43.59375,12.4062501 Z M7.5,28.7187501 C7.90625203,28.7187501 8.25781102,28.8671861 8.5546875,29.1640626 C8.85156398,29.460939 9,29.812498 9,30.2187501 L9,33.2187501 C9,33.6250021 8.85156398,33.9765611 8.5546875,34.2734376 C8.25781102,34.570314 7.90625203,34.7187501 7.5,34.7187501 L4.5,34.7187501 C4.09374797,34.7187501 3.74218898,34.570314 3.4453125,34.2734376 C3.14843602,33.9765611 3,33.6250021 3,33.2187501 L3,30.2187501 C3,29.812498 3.14843602,29.460939 3.4453125,29.1640626 C3.74218898,28.8671861 4.09374797,28.7187501 4.5,28.7187501 L7.5,28.7187501 Z M43.59375,30.2187501 C44.000002,30.2187501 44.351561,30.3671861 44.6484375,30.6640626 C44.945314,30.960939 45.09375,31.312498 45.09375,31.7187501 C45.09375,32.1250021 44.945314,32.4765611 44.6484375,32.7734376 C44.351561,33.070314 44.000002,33.2187501 43.59375,33.2187501 L14.25,33.2187501 C13.843748,33.2187501 13.492189,33.070314 13.1953125,32.7734376 C12.898436,32.4765611 12.75,32.1250021 12.75,31.7187501 C12.75,31.312498 12.898436,30.960939 13.1953125,30.6640626 C13.492189,30.3671861 13.843748,30.2187501 14.25,30.2187501 L43.59375,30.2187501 Z M7.5,37.6250001 C7.90625203,37.6250001 8.25781102,37.7734361 8.5546875,38.0703126 C8.85156398,38.367189 9,38.718748 9,39.1250001 L9,42.1250001 C9,42.5312521 8.85156398,42.8828111 8.5546875,43.1796876 C8.25781102,43.476564 7.90625203,43.6250001 7.5,43.6250001 L4.5,43.6250001 C4.09374797,43.6250001 3.74218898,43.476564 3.4453125,43.1796876 C3.14843602,42.8828111 3,42.5312521 3,42.1250001 L3,39.1250001 C3,38.718748 3.14843602,38.367189 3.4453125,38.0703126 C3.74218898,37.7734361 4.09374797,37.6250001 4.5,37.6250001 L7.5,37.6250001 Z M43.59375,39.1250001 C44.000002,39.1250001 44.351561,39.2734361 44.6484375,39.5703126 C44.945314,39.867189 45.09375,40.218748 45.09375,40.6250001 C45.09375,41.0312521 44.945314,41.3828111 44.6484375,41.6796876 C44.351561,41.976564 44.000002,42.1250001 43.59375,42.1250001 L14.25,42.1250001 C13.843748,42.1250001 13.492189,41.976564 13.1953125,41.6796876 C12.898436,41.3828111 12.75,41.0312521 12.75,40.6250001 C12.75,40.218748 12.898436,39.867189 13.1953125,39.5703126 C13.492189,39.2734361 13.843748,39.1250001 14.25,39.1250001 L43.59375,39.1250001 Z M7.5,19.8125001 C7.90625203,19.8125001 8.25781102,19.9609361 8.5546875,20.2578126 C8.85156398,20.554689 9,20.906248 9,21.3125001 L9,24.3125001 C9,24.7187521 8.85156398,25.0703111 8.5546875,25.3671876 C8.25781102,25.664064 7.90625203,25.8125001 7.5,25.8125001 L4.5,25.8125001 C4.09374797,25.8125001 3.74218898,25.664064 3.4453125,25.3671876 C3.14843602,25.0703111 3,24.7187521 3,24.3125001 L3,21.3125001 C3,20.906248 3.14843602,20.554689 3.4453125,20.2578126 C3.74218898,19.9609361 4.09374797,19.8125001 4.5,19.8125001 L7.5,19.8125001 Z M43.59375,21.3125001 C44.000002,21.3125001 44.351561,21.4609361 44.6484375,21.7578126 C44.945314,22.054689 45.09375,22.406248 45.09375,22.8125001 C45.09375,23.2187521 44.945314,23.5703111 44.6484375,23.8671876 C44.351561,24.164064 44.000002,24.3125001 43.59375,24.3125001 L14.25,24.3125001 C13.843748,24.3125001 13.492189,24.164064 13.1953125,23.8671876 C12.898436,23.5703111 12.75,23.2187521 12.75,22.8125001 C12.75,22.406248 12.898436,22.054689 13.1953125,21.7578126 C13.492189,21.4609361 13.843748,21.3125001 14.25,21.3125001 L43.59375,21.3125001 Z M7.5,2.00000006 C7.90625203,2.00000006 8.25781102,2.14843608 8.5546875,2.44531256 C8.85156398,2.74218904 9,3.09374803 9,3.50000006 L9,6.50000006 C9,6.90625209 8.85156398,7.25781108 8.5546875,7.55468756 C8.25781102,7.85156404 7.90625203,8.00000006 7.5,8.00000006 L4.5,8.00000006 C4.09374797,8.00000006 3.74218898,7.85156404 3.4453125,7.55468756 C3.14843602,7.25781108 3,6.90625209 3,6.50000006 L3,3.50000006 C3,3.09374803 3.14843602,2.74218904 3.4453125,2.44531256 C3.74218898,2.14843608 4.09374797,2.00000006 4.5,2.00000006 L7.5,2.00000006 Z M14.25,6.50000006 C13.843748,6.50000006 13.492189,6.35156404 13.1953125,6.05468756 C12.898436,5.75781108 12.75,5.40625209 12.75,5.00000006 C12.75,4.59374803 12.898436,4.24218904 13.1953125,3.94531256 C13.492189,3.64843608 13.843748,3.50000006 14.25,3.50000006 L43.59375,3.50000006 C44.000002,3.50000006 44.351561,3.64843608 44.6484375,3.94531256 C44.945314,4.24218904 45.09375,4.59374803 45.09375,5.00000006 C45.09375,5.40625209 44.945314,5.75781108 44.6484375,6.05468756 C44.351561,6.35156404 44.000002,6.50000006 43.59375,6.50000006 L14.25,6.50000006 Z" id="î§"></path>
                    </g>
                </g>
            </g>
        </g>
    </g>
</svg>