<svg width="57px" height="47px" viewBox="0 0 57 47" version="1.1" xmlns="http://www.w3.org/2000/svg" xmlns:xlink="http://www.w3.org/1999/xlink">
    <!-- Generator: sketchtool 59.1 (101010) - https://sketch.com -->
    <desc>Created with sketchtool.</desc>
    <defs>
        <filter x="-1.3%" y="-3.9%" width="102.5%" height="107.8%" filterUnits="objectBoundingBox" id="filter-1">
            <feOffset dx="0" dy="2" in="SourceAlpha" result="shadowOffsetOuter1"></feOffset>
            <feGaussianBlur stdDeviation="2" in="shadowOffsetOuter1" result="shadowBlurOuter1"></feGaussianBlur>
            <feColorMatrix values="0 0 0 0 0   0 0 0 0 0   0 0 0 0 0  0 0 0 0.1 0" type="matrix" in="shadowBlurOuter1" result="shadowMatrixOuter1"></feColorMatrix>
            <feMerge>
                <feMergeNode in="shadowMatrixOuter1"></feMergeNode>
                <feMergeNode in="SourceGraphic"></feMergeNode>
            </feMerge>
        </filter>
    </defs>
    <g id="🛬-Landing-page" stroke="none" stroke-width="1" fill="none" fill-rule="evenodd">
        <g id="Landing-page-Light-concept-with-backimage" transform="translate(-263.000000, -456.000000)" fill="#000000">
            <g id="Group" filter="url(#filter-1)" transform="translate(240.000000, 424.000000)">
                <g id="Landing/Steps" transform="translate(0.500000, 0.000000)">
                    <g id="Landing/Icons/BOX1" transform="translate(27.000000, 30.000000)">
                        <path d="M45,4.00000012 C45.8125041,4.00000012 46.515622,4.28905973 47.109375,4.86718762 C47.703128,5.44531551 48,6.1562459 48,7.00000012 L48,32.5000001 C48,33.3125042 47.703128,34.0156222 47.109375,34.6093751 C46.515622,35.2031281 45.8125041,35.5000001 45,35.5000001 L25.5,35.5000001 L25.5,40.0000001 L33,40.0000001 C33.406252,40.0000001 33.757811,40.1484361 34.0546875,40.4453126 C34.351564,40.7421891 34.5,41.0937481 34.5,41.5000001 C34.5,41.9062522 34.351564,42.2578111 34.0546875,42.5546876 C33.757811,42.8515641 33.406252,43.0000001 33,43.0000001 L15,43.0000001 C14.593748,43.0000001 14.242189,42.8515641 13.9453125,42.5546876 C13.648436,42.2578111 13.5,41.9062522 13.5,41.5000001 C13.5,41.0937481 13.648436,40.7421891 13.9453125,40.4453126 C14.242189,40.1484361 14.593748,40.0000001 15,40.0000001 L22.5,40.0000001 L22.5,35.5000001 L3,35.5000001 C2.18749594,35.5000001 1.48437797,35.2031281 0.890625,34.6093751 C0.296872031,34.0156222 0,33.3125042 0,32.5000001 L0,7.00000012 C0,6.1562459 0.296872031,5.44531551 0.890625,4.86718762 C1.48437797,4.28905973 2.18749594,4.00000012 3,4.00000012 L45,4.00000012 Z M45,32.5000001 L45,7.00000012 L3,7.00000012 L3,32.5000001 L45,32.5000001 Z" id=""></path>
                    </g>
                </g>
            </g>
        </g>
    </g>
</svg>