<svg width="43px" height="56px" viewBox="0 0 43 56" version="1.1" xmlns="http://www.w3.org/2000/svg" xmlns:xlink="http://www.w3.org/1999/xlink">
    <!-- Generator: sketchtool 59.1 (101010) - https://sketch.com -->
    <desc>Created with sketchtool.</desc>
    <defs>
        <filter x="-1.3%" y="-3.9%" width="102.5%" height="107.8%" filterUnits="objectBoundingBox" id="filter-1">
            <feOffset dx="0" dy="2" in="SourceAlpha" result="shadowOffsetOuter1"></feOffset>
            <feGaussianBlur stdDeviation="2" in="shadowOffsetOuter1" result="shadowBlurOuter1"></feGaussianBlur>
            <feColorMatrix values="0 0 0 0 0   0 0 0 0 0   0 0 0 0 0  0 0 0 0.1 0" type="matrix" in="shadowBlurOuter1" result="shadowMatrixOuter1"></feColorMatrix>
            <feMerge>
                <feMergeNode in="shadowMatrixOuter1"></feMergeNode>
                <feMergeNode in="SourceGraphic"></feMergeNode>
            </feMerge>
        </filter>
    </defs>
    <g id="🛬-Landing-page" stroke="none" stroke-width="1" fill="none" fill-rule="evenodd">
        <g id="Landing-page-Light-concept-with-backimage" transform="translate(-913.000000, -610.000000)" fill="#000000">
            <g id="Group" filter="url(#filter-1)" transform="translate(240.000000, 424.000000)">
                <g id="Landing/Steps-Copy-5" transform="translate(644.000000, 158.000000)">
                    <g id="Landing/Icons/BOX1" transform="translate(27.000000, 30.000000)">
                        <path d="M25.5,0 L40.5,15 L40.5,45 C40.5,45.8437542 40.2109404,46.5546846 39.6328125,47.1328125 C39.0546846,47.7109404 38.3437542,48 37.5,48 L9,48 C8.15624578,48 7.44531539,47.7109404 6.8671875,47.1328125 C6.28905961,46.5546846 6,45.8437542 6,45 L6,3 C6,2.15624578 6.28905961,1.44531539 6.8671875,0.8671875 C7.44531539,0.289059609 8.15624578,0 9,0 L25.5,0 Z M37.5,16.265625 L24.28125,3 L24,3 L24,16.5 L37.5,16.5 L37.5,16.265625 Z M9,45 L37.5,45 L37.5,19.5 L21,19.5 L21,3 L9,3 L9,45 Z" id=""></path>
                    </g>
                </g>
            </g>
        </g>
    </g>
</svg>