<svg width="56px" height="56px" viewBox="0 0 56 56" version="1.1" xmlns="http://www.w3.org/2000/svg" xmlns:xlink="http://www.w3.org/1999/xlink">
    <!-- Generator: sketchtool 59.1 (101010) - https://sketch.com -->
    <desc>Created with sketchtool.</desc>
    <defs>
        <filter x="-1.3%" y="-3.9%" width="102.5%" height="107.8%" filterUnits="objectBoundingBox" id="filter-1">
            <feOffset dx="0" dy="2" in="SourceAlpha" result="shadowOffsetOuter1"></feOffset>
            <feGaussianBlur stdDeviation="2" in="shadowOffsetOuter1" result="shadowBlurOuter1"></feGaussianBlur>
            <feColorMatrix values="0 0 0 0 0   0 0 0 0 0   0 0 0 0 0  0 0 0 0.1 0" type="matrix" in="shadowBlurOuter1" result="shadowMatrixOuter1"></feColorMatrix>
            <feMerge>
                <feMergeNode in="shadowMatrixOuter1"></feMergeNode>
                <feMergeNode in="SourceGraphic"></feMergeNode>
            </feMerge>
        </filter>
    </defs>
    <g id="🛬-Landing-page" stroke="none" stroke-width="1" fill="none" fill-rule="evenodd">
        <g id="Landing-page-Light-concept-with-backimage" transform="translate(-263.000000, -610.000000)" fill="#000000" fill-rule="nonzero">
            <g id="Group" filter="url(#filter-1)" transform="translate(240.000000, 424.000000)">
                <g id="Landing/Steps-Copy-3" transform="translate(0.000000, 158.000000)">
                    <g id="Landing/Icons/BOX1" transform="translate(27.000000, 30.000000)">
                        <path d="M33.0363734,22.0606043 L29.8437856,22.0606043 C28.7617285,22.0606043 27.884602,22.9377309 27.884602,24.0197881 C27.884602,25.1018452 28.7617285,25.9789718 29.8437856,25.9789718 L30.9642428,25.9789718 C30.5263652,29.657731 28.8164877,32.6149229 25.8650754,34.7871679 C25.2672306,35.2271026 24.5158836,35.2904822 23.854953,34.9562454 C23.5393285,34.7967679 22.8055163,34.3108903 22.8055163,33.2481311 L22.8055163,23.8021227 L24.147851,23.8021227 C25.2299081,23.8021227 26.1070346,22.9249962 26.1070346,21.842939 C26.1070346,20.7608819 25.2299081,19.8837553 24.147851,19.8837553 L22.8055163,19.8837553 L22.8055163,10.9591837 C22.8055163,9.87712655 21.9283898,9 20.8463326,9 L16.3476551,9 C15.2655979,9 14.3884714,9.87712655 14.3884714,10.9591837 C14.3884714,12.0412409 15.2655979,12.9183674 16.3476551,12.9183674 L18.887149,12.9183674 L18.887149,19.8837553 L14.8966837,19.8837553 C13.8146265,19.8837553 12.9375,20.7608819 12.9375,21.842939 C12.9375,22.9249962 13.8146265,23.8021227 14.8966837,23.8021227 L18.8872469,23.8021227 L18.8872469,33.2481311 C18.8872469,35.4606373 20.113304,37.4550863 22.0868877,38.4529965 C22.9253204,38.8769639 23.8282102,39.0859108 24.7266918,39.0859108 C25.9471652,39.0859108 27.1591163,38.7000496 28.1877856,37.942923 C31.2933856,35.6570454 34.9954591,31.3860249 34.9954591,24.0197881 C34.9954591,22.9377309 34.1184305,22.0606043 33.0363734,22.0606043 Z" id="Path"></path>
                        <path d="M5.34375,0.140625 L42.65625,0.140625 C45.5298566,0.140625 47.859375,2.47014341 47.859375,5.34375 L47.859375,42.65625 C47.859375,45.5298566 45.5298566,47.859375 42.65625,47.859375 L5.34375,47.859375 C2.47014341,47.859375 0.140625,45.5298566 0.140625,42.65625 L0.140625,5.34375 C0.140625,2.47014341 2.47014341,0.140625 5.34375,0.140625 Z M5.34375,3.046875 C4.07522097,3.046875 3.046875,4.07522097 3.046875,5.34375 L3.046875,42.65625 C3.046875,43.924779 4.07522097,44.953125 5.34375,44.953125 L42.65625,44.953125 C43.924779,44.953125 44.953125,43.924779 44.953125,42.65625 L44.953125,5.34375 C44.953125,4.07522097 43.924779,3.046875 42.65625,3.046875 L5.34375,3.046875 Z" id="Rectangle"></path>
                    </g>
                </g>
            </g>
        </g>
    </g>
</svg>