<svg width="70" height="50" xmlns="http://www.w3.org/2000/svg">

 <g>
  <title>background</title>
  <rect fill="none" id="canvas_background" height="602" width="802" y="-1" x="-1"></rect>
 </g>
 <g>
  <title>Layer 1</title>
  <g stroke="null" id="surface1">
   <path stroke="null" id="svg_1" fill-rule="nonzero" fill="rgb(0%,0%,0%)" d="m5.74752,2.20143l-3.04544,0.46278l-0.12182,18.02532l-0.08122,18.07279l1.09636,-0.24919c2.55818,-0.58147 7.43088,-1.04426 10.55754,-1.0858l3.37029,0l-0.48728,-1.07986l-0.48726,-1.12731l-5.80665,0.25513l-5.80663,0.20765l0,-31.10819l1.94908,-0.33226c3.4921,-0.623 12.99389,-0.37381 16.6484,0.42126c1.82727,0.41533 3.81697,0.91372 4.34483,1.12139l1.01516,0.41533l0,18.6127l1.01514,0.45688l1.01516,0.49839l0,-19.8587l2.76119,-0.66453c5.07574,-1.25192 9.05512,-1.66724 14.09024,-1.37652c2.67999,0.16614 5.35999,0.37381 6.00968,0.4984l1.09636,0.25513l0,30.97767l-7.79633,-0.04154l-7.83695,0l-0.24363,2.07665l6.41573,0c3.53272,0.04153 7.5121,0.25513 8.81149,0.54587c1.33999,0.29072 2.59878,0.33226 2.76119,0.16612c0.20303,-0.20767 0.28425,-8.2888 0.24365,-18.03124l-0.12183,-17.65153l-3.45149,-0.54585c-5.31938,-0.83067 -15.47085,-0.41533 -20.14052,0.83659c-3.65453,0.95526 -3.73575,0.95526 -6.41574,0.24919c-6.13148,-1.62572 -14.86175,-2.04105 -21.3587,-1.00272zm0,0"></path>
   <path stroke="null" id="svg_2" fill-rule="nonzero" fill="rgb(0%,0%,0%)" d="m7.29054,6.86498c-0.40605,0.13054 -0.73089,0.62892 -0.73089,1.12733c0,0.91372 0.0812,0.91372 7.18724,0.95525c5.07574,0 8.03996,0.20767 9.98905,0.67047c2.35515,0.53993 2.80181,0.58146 3.00484,0.08307c0.77151,-2.04105 -1.82727,-2.70558 -11.24783,-2.87766c-4.1418,-0.08305 -7.83693,-0.08305 -8.20239,0.04154zm0,0"></path>
   <path stroke="null" id="svg_3" fill-rule="nonzero" fill="rgb(0%,0%,0%)" d="m38.02921,6.90651c-0.44666,0.08901 -1.78665,0.37973 -2.92362,0.5874c-2.0303,0.41533 -2.15211,0.4984 -2.15211,1.70285c0,1.00273 0.12182,1.2104 0.69031,1.00273c0.36545,-0.16612 2.03028,-0.49839 3.65452,-0.7476c2.88302,-0.46278 2.96424,-0.50433 2.96424,-1.66724c0,-1.2104 -0.32485,-1.33499 -2.23333,-0.87813zm0,0"></path>
   <path stroke="null" id="svg_4" fill-rule="nonzero" fill="rgb(0%,0%,0%)" d="m43.10494,12.4482l0,5.82649l1.54302,0c0.81213,0 3.00484,0.1246 4.87271,0.29072l3.32969,0.24921l0,-5.82649c0,-4.95429 -0.08122,-5.90956 -0.64969,-6.12315c-0.36545,-0.1246 -2.55818,-0.24919 -4.87271,-0.24919l-4.22301,0l0,5.83241zm0,0"></path>
   <path stroke="null" id="svg_5" fill-rule="nonzero" fill="rgb(0%,0%,0%)" d="m8.58993,11.57007c-1.62424,0.21361 -1.82727,0.37973 -1.82727,1.29347l0,1.03832l6.0909,-0.1246c4.1824,-0.08307 7.18724,0.08307 9.54238,0.50433c4.46664,0.83067 4.46664,0.83067 4.46664,-0.37973c0,-0.83065 -0.28425,-1.07986 -1.50242,-1.41213c-4.1012,-1.12731 -12.14116,-1.54265 -16.77024,-0.91966zm0,0"></path>
   <path stroke="null" id="svg_6" fill-rule="nonzero" fill="rgb(0%,0%,0%)" d="m37.01406,11.90827c-3.24847,0.58146 -4.0606,0.99679 -4.0606,1.99358c0,1.29345 0.20303,1.29345 6.41574,-0.04153c0.64969,-0.1246 0.89333,-0.4984 0.89333,-1.20446c0,-1.0858 -0.56848,-1.2104 -3.24847,-0.7476zm0,0"></path>
   <path stroke="null" id="svg_7" fill-rule="nonzero" fill="rgb(0%,0%,0%)" d="m7.69661,16.48877c-0.85273,0.1246 -1.13696,0.41532 -1.13696,1.12139l0,0.99679l6.90299,-0.08307c5.84725,-0.08307 7.02482,-0.20767 7.5933,-0.78912c0.36546,-0.37381 0.52788,-0.83067 0.36546,-0.99679c-0.32485,-0.37973 -11.93813,-0.5874 -13.7248,-0.24919zm0,0"></path>
   <path stroke="null" id="svg_8" fill-rule="nonzero" fill="rgb(0%,0%,0%)" d="m37.62314,16.6549c-3.93877,0.70606 -4.46664,0.95526 -4.58846,2.20719c-0.12182,1.03832 -0.0406,1.16292 0.81213,0.95525c0.52786,-0.1246 2.1521,-0.45686 3.69513,-0.7476c2.59878,-0.50433 2.72059,-0.58738 2.72059,-1.70879c0,-0.62299 -0.12182,-1.12731 -0.28425,-1.12731c-0.20303,0.04153 -1.21817,0.20767 -2.35515,0.42126zm0,0"></path>
   <path stroke="null" id="svg_9" fill-rule="nonzero" fill="rgb(0%,0%,0%)" d="m23.08624,20.2742c-0.56848,0.623 -0.69029,1.75033 -0.69029,6.53848l0,5.78495l-1.13697,-1.12139c-1.25877,-1.25192 -2.55816,-1.45958 -3.32967,-0.49839c-0.44668,0.53993 -0.20303,1.37058 1.54302,4.95429c3.41089,7.03687 7.02482,9.95011 11.41025,9.20252c3.61393,-0.62892 5.35999,-3.4591 5.64422,-9.24406c0.20303,-4.24822 -0.12182,-5.12042 -1.82727,-5.12042c-0.60908,0 -1.33999,-0.42126 -1.86787,-1.08579c-0.60908,-0.83067 -1.05576,-1.03833 -1.86787,-0.87219c-0.85273,0.16612 -1.17757,0.04153 -1.46182,-0.67047c-0.44666,-1.03832 -1.98968,-1.41213 -2.88301,-0.70606c-0.48728,0.45686 -0.56848,0 -0.56848,-2.99631c0,-2.91324 -0.12183,-3.66677 -0.73091,-4.2067c-0.97454,-0.91372 -1.4212,-0.87219 -2.23333,0.04153zm0,0"></path>
   <path stroke="null" id="svg_10" fill-rule="nonzero" fill="rgb(0%,0%,0%)" d="m10.4172,21.06332c-3.37029,0.21361 -3.85755,0.42127 -3.85755,1.66726c0,1.04426 0.0406,1.08579 1.86787,0.78912c1.05576,-0.1246 4.06058,-0.24919 6.69997,-0.24919c4.79149,0 4.83209,0 4.83209,-0.99679c0,-0.87219 -0.20303,-0.99679 -2.47696,-1.25192c-1.38059,-0.1246 -3.08604,-0.20767 -3.77634,-0.16612c-0.69031,0.04153 -2.15211,0.1246 -3.28909,0.20765zm0,0"></path>
   <path stroke="null" id="svg_11" fill-rule="nonzero" fill="rgb(0%,0%,0%)" d="m40.46557,21.18793c-1.54304,0.17206 -3.89817,0.54585 -5.15695,0.79505c-2.23333,0.4984 -2.35515,0.58147 -2.35515,1.79186c0,0.99679 0.12182,1.20446 0.64969,0.99679c2.43636,-0.95526 8.48664,-1.58419 13.6842,-1.41805l5.563,0.20767l0,-0.95526c0,-0.4984 -0.12182,-1.03832 -0.28425,-1.12139c-0.64969,-0.42127 -9.37995,-0.62892 -12.10054,-0.29666zm0,0"></path>
   <path stroke="null" id="svg_12" fill-rule="nonzero" fill="rgb(0%,0%,0%)" d="m8.3869,26.14815c-1.38059,0.20767 -1.62424,0.41533 -1.62424,1.28753c0,0.78912 0.20303,1.00272 0.81213,0.91966c0.44666,-0.04747 3.41089,-0.13054 6.61876,-0.17208c5.68483,-0.04153 5.76603,-0.04153 5.76603,-0.95525c0,-0.623 -0.32485,-1.03833 -0.89333,-1.20446c-1.13696,-0.29666 -8.48663,-0.21361 -10.67936,0.1246zm0,0"></path>
   <path stroke="null" id="svg_13" fill-rule="nonzero" fill="rgb(0%,0%,0%)" d="m38.47587,26.23122c-3.69513,0.49839 -4.26361,0.87219 -2.88301,1.78592c0.97454,0.67047 1.50242,0.67047 5.31937,0.29074c3.77635,-0.41533 6.53754,-0.37381 10.63874,0.17206c1.17757,0.1246 1.29939,0.04153 1.29939,-1.00273c0,-1.12139 -0.08122,-1.16292 -2.47696,-1.45365c-3.24847,-0.3382 -8.36481,-0.25513 -11.89753,0.20767zm0,0"></path>
   <path stroke="null" id="svg_14" fill-rule="nonzero" fill="rgb(0%,0%,0%)" d="m7.49357,31.06092c-0.69029,0.1246 -0.93393,0.45686 -0.93393,1.24599l0,1.08579l2.76119,-0.24919c1.50242,-0.17206 3.57332,-0.29666 4.66968,-0.29666c1.74605,0 1.90848,-0.08307 1.90848,-1.03833c0,-1.03832 0,-1.03832 -3.73575,-0.99679c-2.0709,0.04154 -4.1824,0.16614 -4.66968,0.24921zm0,0"></path>
   <path stroke="null" id="svg_15" fill-rule="nonzero" fill="rgb(0%,0%,0%)" d="m39.08496,31.14397c-0.28425,0.20767 -0.44666,0.70607 -0.28425,1.12139c0.20303,0.7476 0.73091,0.78914 7.14664,0.78914c6.82179,0 6.90301,0 6.90301,-0.87219c0,-0.58147 -0.32485,-0.99679 -0.89333,-1.16293c-1.4212,-0.37973 -12.22238,-0.29072 -12.87207,0.1246zm0,0"></path>
  </g>
 </g>
</svg>