<svg width="52px" height="52px" viewBox="0 0 52 52" version="1.1" xmlns="http://www.w3.org/2000/svg" xmlns:xlink="http://www.w3.org/1999/xlink">
    <!-- Generator: sketchtool 59.1 (101010) - https://sketch.com -->
    <desc>Created with sketchtool.</desc>
    <defs>
        <filter x="-1.3%" y="-3.9%" width="102.5%" height="107.8%" filterUnits="objectBoundingBox" id="filter-1">
            <feOffset dx="0" dy="2" in="SourceAlpha" result="shadowOffsetOuter1"></feOffset>
            <feGaussianBlur stdDeviation="2" in="shadowOffsetOuter1" result="shadowBlurOuter1"></feGaussianBlur>
            <feColorMatrix values="0 0 0 0 0   0 0 0 0 0   0 0 0 0 0  0 0 0 0.1 0" type="matrix" in="shadowBlurOuter1" result="shadowMatrixOuter1"></feColorMatrix>
            <feMerge>
                <feMergeNode in="shadowMatrixOuter1"></feMergeNode>
                <feMergeNode in="SourceGraphic"></feMergeNode>
            </feMerge>
        </filter>
    </defs>
    <g id="🛬-Landing-page" stroke="none" stroke-width="1" fill="none" fill-rule="evenodd">
        <g id="Landing-page-Light-concept-with-backimage" transform="translate(-909.000000, -454.000000)" fill="#000000" fill-rule="nonzero">
            <g id="Group" filter="url(#filter-1)" transform="translate(240.000000, 424.000000)">
                <g id="Landing/Steps-Copy-2" transform="translate(644.000000, 0.000000)">
                    <g id="Landing/Icons/BOX1" transform="translate(27.000000, 30.000000)">
                        <g id="Group" transform="translate(2.156250, 2.343750)">
                            <path d="M26.2116564,39.629437 C25.8520314,39.719062 25.4853752,39.7986557 25.1214376,39.865687 C24.1700626,40.0425932 23.5410939,40.9575933 23.7170626,41.909812 C23.8039689,42.3782808 24.0700314,42.7684683 24.4312501,43.0231871 C24.8035314,43.2852183 25.2773439,43.4035308 25.7601564,43.3137183 C26.1935627,43.2332808 26.6303439,43.1386871 27.0589689,43.0317183 C27.9984377,42.7979058 28.5707814,41.8461558 28.3364064,40.9071557 C28.1025939,39.967312 27.1516877,39.395437 26.2116564,39.629437 Z" id="Path"></path>
                            <path d="M39.1769067,16.1294058 C39.2997192,16.4995307 39.534188,16.801687 39.8303442,17.0104682 C40.2694692,17.3197495 40.844063,17.423812 41.3924068,17.2424995 C42.3117193,16.9372495 42.8098131,15.945937 42.5056881,15.0270933 C42.3671256,14.6082183 42.2133756,14.1880308 42.0495943,13.7789058 C41.6899693,12.8798433 40.6701567,12.4421245 39.7706255,12.8017495 C38.8720317,13.161187 38.4341254,14.1812808 38.7940317,15.0806245 C38.9316567,15.4244995 39.0605629,15.7774683 39.1769067,16.1294058 Z" id="Path"></path>
                            <path d="M31.9087487,37.1262188 C31.5994674,37.3304063 31.2802487,37.5280313 30.9586862,37.7131876 C30.1197175,38.1971251 29.8323737,39.2695314 30.3161237,40.1081252 C30.4474674,40.3362189 30.6224049,40.5226877 30.8238737,40.6651877 C31.3647174,41.045719 32.0992487,41.102719 32.7107799,40.7504064 C33.0930924,40.5299064 33.4732487,40.2953439 33.8415924,40.0517814 C34.6491549,39.5182502 34.8714361,38.4304689 34.3376236,37.6225314 C33.8039049,36.8143126 32.7165924,36.5923126 31.9087487,37.1262188 Z" id="Path"></path>
                            <path d="M43.5958116,21.0261562 C43.5576553,20.0584687 42.7425928,19.3052812 41.7746241,19.3430625 C40.8078742,19.3812187 40.0541242,20.1965625 40.092093,21.1638749 C40.1066242,21.5337187 40.1103742,21.9090937 40.101843,22.2785624 C40.0882492,22.8854062 40.3850617,23.4263437 40.8463117,23.7514687 C41.1210929,23.9449687 41.4545617,24.0620624 41.8161554,24.0703124 C42.7838428,24.0917812 43.5857803,23.3242499 43.6072491,22.3560937 C43.6169053,21.9146249 43.6132491,21.4673437 43.5958116,21.0261562 Z" id="Path"></path>
                            <path d="M38.8907805,32.5139992 C38.1148117,31.9318117 37.0169992,32.0898742 36.4358429,32.8644367 C36.2132804,33.1610617 35.9789054,33.4540305 35.7389053,33.7361242 C35.1117178,34.4729992 35.2003116,35.5798117 35.9371866,36.207468 C35.9791866,36.243093 36.0216554,36.2758118 36.0657179,36.3065618 C36.7982804,36.8230305 37.8164054,36.704343 38.408718,36.0092805 C38.6953117,35.672718 38.9746867,35.3227492 39.2406555,34.968468 C39.8219055,34.1939055 39.664593,33.095343 38.8907805,32.5139992 Z" id="Path"></path>
                            <path d="M41.4679681,26.1762184 C40.5440619,25.8865309 39.5601557,26.4008434 39.2706557,27.3247497 C39.1598433,27.6777184 39.0370308,28.0323747 38.9044683,28.3797184 C38.6133745,29.1443435 38.8922808,29.985656 39.5316557,30.4364998 C39.648937,30.518906 39.7781245,30.5887498 39.9184682,30.6418123 C40.8230619,30.9869998 41.8360306,30.533156 42.1808431,29.6281872 C42.3382494,29.2152185 42.4843119,28.7932497 42.6164056,28.3736247 C42.9056243,27.4495309 42.3916869,26.4659059 41.4679681,26.1762184 Z" id="Path"></path>
                            <path d="M18.5624069,39.8814367 C16.9949068,39.5999992 15.4912505,39.1207492 14.0654067,38.4523117 C14.0485317,38.4434992 14.033438,38.433468 14.0157192,38.4254055 C13.6797192,38.2672492 13.3442817,38.097843 13.0191567,37.920843 C13.0180317,37.9195305 13.0159692,37.9186867 13.0141879,37.9179367 C12.4176567,37.5894367 11.8354692,37.225968 11.2698754,36.8278118 C3.0225001,31.0181244 1.03950004,19.5817496 6.84956273,11.3344685 C8.11293778,9.54178106 9.64181283,8.04618734 11.3462816,6.86081236 C11.3672816,6.84618736 11.3882816,6.83165611 11.4090941,6.81693736 C17.4153756,2.67843745 25.5709696,2.3995312 31.9486886,6.65221862 L30.5789073,8.63137483 C30.1980948,9.18224982 30.432376,9.58368731 31.0990323,9.52368731 L37.0490638,8.99099982 C37.7165638,8.93099982 38.1157513,8.35359358 37.93622,7.70896859 L36.3384387,1.95215621 C36.1595637,1.30678122 35.701595,1.22953122 35.3204074,1.78031246 L33.9474387,3.76415617 C29.2670635,0.622312487 23.6534071,-0.575718739 18.0815631,0.390468741 C17.5203756,0.487593739 16.9670631,0.606468737 16.4213443,0.744843734 C16.4171256,0.745593734 16.4137506,0.746062484 16.4103756,0.746812484 C16.3892818,0.751968734 16.3679068,0.758812484 16.3473756,0.764531234 C11.5426879,1.99837496 7.3506565,4.80065615 4.35937515,8.79890607 C4.3341564,8.82881232 4.30818765,8.85806232 4.28437515,8.89059357 C4.18490639,9.02456232 4.08618764,9.16162482 3.98953139,9.29868731 C3.83146888,9.52331231 3.67565637,9.7535623 3.52659387,9.9838123 C3.50793762,10.0115623 3.49368762,10.039781 3.47737512,10.0678123 C1.00893753,13.892906 -0.181687506,18.3150934 0.0225000008,22.8171558 C0.0229687508,22.8319683 0.0221250008,22.8468745 0.0225000008,22.862062 C0.0422812514,23.3018433 0.0771562526,23.7477183 0.124500004,24.1866558 C0.127031254,24.2149683 0.133312505,24.2417808 0.138093755,24.2700933 C0.187031256,24.7114683 0.248437508,25.1538745 0.325406261,25.596187 C1.10765629,30.1091244 3.23653136,34.1700931 6.42656272,37.3299368 C6.43396897,37.337343 6.44165647,37.3454055 6.44915647,37.353093 C6.45178147,37.3559992 6.45468772,37.3574992 6.45721897,37.360218 C7.3142815,38.2055617 8.24653153,38.9874367 9.25031281,39.6944055 C11.8771879,41.5454054 14.8022818,42.7689366 17.9436569,43.3326554 C18.8968131,43.5039366 19.8073132,42.8694366 19.9783132,41.9167492 C20.1492194,40.9634054 19.5152819,40.0521554 18.5624069,39.8814367 Z" id="Path"></path>
                            <path d="M20.7303749,7.70606232 C19.9463437,7.70606232 19.3112812,8.34168733 19.3112812,9.12459359 L19.3112812,23.2571251 L32.2365933,29.9387815 C32.4446246,30.0465002 32.6673746,30.097219 32.8865621,30.097219 C33.3999371,30.097219 33.8957808,29.8176565 34.1478745,29.3298752 C34.5074058,28.6336877 34.2353433,27.7784064 33.5391558,27.4188752 L22.1478749,21.5296876 L22.1478749,9.12459359 C22.1477811,8.34168733 21.5134686,7.70606232 20.7303749,7.70606232 Z" id="Path"></path>
                        </g>
                    </g>
                </g>
            </g>
        </g>
    </g>
</svg>